# xmcd
#
# Track frame offsets: 
#        150
#        14168
#        25712
#        37930
#        50646
#        64700
#        78736
#        92671
#        106003
#        119055
#        133382
#        146111
#        158484
#        171083
#        184431
#        197607
#        211460
#        225225
#        239681
#        252155
#
# Disc length: 3559 seconds
#
# Revision: 1
# Processed by: cddbd v1.5.2PL0 Copyright (c) Steve Scherf et al.
# Submitted via: ExactAudioCopyFreeDBPlugin 1.0
#
DISCID=1e0de514
DTITLE=Ma Rainey - Mother of the Blues, 1923-1928 [JSP Records]
DYEAR=2013
DGENRE=Blues
TTITLE0=Bad Luck Blues
TTITLE1=Bo-Weavil Blues (take 1)
TTITLE2=Bo-Weavil Blues (take 2)
TTITLE3=Barrel House Blues
TTITLE4=Those All Night Long Blues (take 1)
TTITLE5=Those All Night Long Blues (take 2)
TTITLE6=Moonshine Blues
TTITLE7=Last Minute Blues
TTITLE8=Southern Blues
TTITLE9=Walking Blues
TTITLE10=Lost Wondering Blues
TTITLE11=Dream Blues
TTITLE12=Honey, Where You Been So Long
TTITLE13=Ya Da Do (take 2)
TTITLE14=Ya Da Do (take 3)
TTITLE15=Those Dogs of Mine
TTITLE16=Lucky Rock Blues
TTITLE17=South Bound Blues
TTITLE18=Lawd Send Me a Man Blues
TTITLE19=Ma Rainey's Mystery Record
EXTD=YEAR: 2013
EXTT0=
EXTT1=
EXTT2=
EXTT3=
EXTT4=
EXTT5=
EXTT6=
EXTT7=
EXTT8=
EXTT9=
EXTT10=
EXTT11=
EXTT12=
EXTT13=
EXTT14=
EXTT15=
EXTT16=
EXTT17=
EXTT18=
EXTT19=
PLAYORDER=
